<svg data-v-0dd9719b="" version="1.0" xmlns="http://www.w3.org/2000/svg" xmlns:xlink="http://www.w3.org/1999/xlink" width="680" height="500" viewBox="0 0 340.000000 250.000000" preserveAspectRatio="xMidYMid meet" color-interpolation-filters="sRGB" style="">   <g data-v-0dd9719b="" class="iconmbgsvg" transform="translate(73.72038269042969,66.38423156738281)"><g fill="#cc2229" hollow-target="textRect"><g transform="translate(37.52961730957031,0)" mask="url(#1c0d21d9-ee24-4b5b-bb24-6426608c225f)"><g><rect fill="#cc2229" fill-opacity="0" stroke-width="2" x="0" y="0" width="117.5" height="117.23153977391775" class="image-rect"></rect> <svg filter="url(#colors3499631396)" x="0" y="0" width="117.5" height="117.23153977391775" filtersec="colorsf8167446642" class="image-svg-svg primary" style="overflow: visible;"><svg xmlns="http://www.w3.org/2000/svg" xmlns:xlink="http://www.w3.org/1999/xlink" version="1.1" x="0px" y="0px" viewBox="5 5.169000148773193 90.05400848388672 89.8479995727539" enable-background="new 0 0 100 100" xml:space="preserve"><g><path d="M88.118,88.087H5V5.169h83.118V88.087z M8.02,85.067h77.077V8.19H8.02V85.067z"></path></g><g><path d="M13.521,81.472c-0.834,0-1.51-0.676-1.51-1.51V13.604c0-0.834,0.676-1.51,1.51-1.51H79.79   c0.834,0,1.51,0.676,1.51,1.51s-0.676,1.51-1.51,1.51H15.032v64.848C15.032,80.796,14.355,81.472,13.521,81.472z"></path></g><g><path d="M93.544,95.017H10.634c-0.834,0-1.51-0.676-1.51-1.51c0-0.834,0.676-1.51,1.51-1.51h81.4V10.685   c0-0.834,0.676-1.51,1.51-1.51s1.51,0.676,1.51,1.51v82.821C95.054,94.34,94.378,95.017,93.544,95.017z"></path></g></svg></svg> <defs><filter id="colors3499631396"><feColorMatrix type="matrix" values="0 0 0 0 0.796875  0 0 0 0 0.1328125  0 0 0 0 0.16015625  0 0 0 1 0" class="icon-fecolormatrix"></feColorMatrix></filter> <filter id="colorsf8167446642"><feColorMatrix type="matrix" values="0 0 0 0 0.99609375  0 0 0 0 0.99609375  0 0 0 0 0.99609375  0 0 0 1 0" class="icon-fecolormatrix"></feColorMatrix></filter> <filter id="colorsb3924713046"><feColorMatrix type="matrix" values="0 0 0 0 0  0 0 0 0 0  0 0 0 0 0  0 0 0 1 0" class="icon-fecolormatrix"></feColorMatrix></filter></defs></g></g> <g transform="translate(0,40.92630195617676)"><g data-gra="path-name" fill-rule="" class="tp-name"><g transform="scale(1)"><g><path d="M19.56-29L19.56-29Q23.38-29.4 26.02-28.7L26.02-28.7Q27.86-28.3 29.53-26.63L29.53-26.63Q32.12-23.16 31.38-18.98L31.38-18.98Q30.41-14.46 26.28-13.45L26.28-13.45 24.35-13.01Q23.29-12.79 24.17-11.38L24.17-11.38Q26.59-7.51 28.83-6.11L28.83-6.11Q31.03-5.01 33.22-4.79L33.22-4.79Q35.11-4.44 33.66-2.68L33.66-2.68Q31.2-1.27 28.26-1.41L28.26-1.41Q26.37-1.41 24.3-4.7L24.3-4.7Q22.06-8.09 20-11.47L20-11.47Q19.34-12.52 18.28-12.52L18.28-12.52Q12.7-12.61 8.75-12.13L8.75-12.13Q7.69-11.95 7.73-10.63L7.73-10.63Q7.78-8.13 8.35-5.41L8.35-5.41Q8.39-4.17 7.73-2.77L7.73-2.77Q6.94-0.97 5.49-0.92L5.49-0.92Q4.44-0.92 3.91-1.98L3.91-1.98Q3.6-3.56 4-5.49L4-5.49Q4.79-17.31 3.87-23.29L3.87-23.29Q3.56-24.43 2.02-24.13L2.02-24.13Q0.48-24.61 1.67-26.15L1.67-26.15Q3.47-28.43 7.6-28.56L7.6-28.56Q16.04-28.26 19.56-29ZM13.84-25.97L13.84-25.97Q12.22-25.84 10.55-25.53L10.55-25.53Q9.36-25.36 8.79-25.05L8.79-25.05Q8-24.43 7.91-23.77L7.91-23.77Q7.73-20.52 7.73-17.14L7.73-17.14Q7.73-16.08 9.05-15.82L9.05-15.82Q17.84-14.72 23.99-16.08L23.99-16.08Q25.53-16.26 26.59-17.67L26.59-17.67Q29.18-21.4 25.44-24.57L25.44-24.57Q21.14-26.32 13.84-25.97ZM43.73-22.19L43.73-22.19Q49.13-23.47 53.53-21.58L53.53-21.58Q56.07-20.26 58.32-16.96L58.32-16.96Q60.16-14.55 57.13-12.13L57.13-12.13Q55.33-11.29 53-11.47L53-11.47Q45.79-12.35 39.81-11.07L39.81-11.07Q38.76-10.9 38.89-9.58L38.89-9.58Q40.52-5.23 44.65-4.53L44.65-4.53Q51.55-3.03 57.04-8.75L57.04-8.75Q57.96-9.93 58.27-9.93L58.27-9.93Q58.97-9.71 59.02-8.09L59.02-8.09Q59.19-5.14 56.07-3.08L56.07-3.08Q50.41-0.44 43.55-1.63L43.55-1.63Q37-2.9 35.38-9.4L35.38-9.4Q34.54-13.49 37.05-17.58L37.05-17.58Q39.68-21.4 43.73-22.19ZM48.74-19.95L48.74-19.95Q44.96-20.43 42.1-18.28L42.1-18.28Q40.43-16.96 39.81-15.64L39.81-15.64Q39.24-14.5 40.3-14.5L40.3-14.5Q47.11-14.63 54.05-14.63L54.05-14.63Q55.2-14.63 54.89-16L54.89-16Q52.43-19.47 48.74-19.95ZM63.81-28.7L63.81-28.7Q65.35-29.71 66.93-28.21L66.93-28.21Q67.81-27.16 67.68-26.41L67.68-26.41Q66.05-17.53 66.88-8.96L66.88-8.96Q67.15-6.64 67.76-4.13L67.76-4.13Q67.59-1.36 65.52-0.83L65.52-0.83Q62.71-1.8 63.06-4.7L63.06-4.7Q63.9-19.51 62.67-26.94L62.67-26.94Q62.62-27.82 63.81-28.7ZM89.65-21.49L89.65-21.49Q90.4-24.13 92.55-22.68L92.55-22.68Q94.04-21.75 93.82-20.13L93.82-20.13Q92.64-12.57 94.31-5.54L94.31-5.54Q95.23-4.04 92.99-2.02L92.99-2.02Q90.66-0.18 90.13-3.08L90.13-3.08Q90.13-4.31 88.9-3.38L88.9-3.38Q83.01 0.62 77.17-1.85L77.17-1.85Q73.04-3.91 71.94-7.91L71.94-7.91Q70.8-12.57 72.33-16.13L72.33-16.13Q73.65-19.82 77.83-21.88L77.83-21.88Q83.32-24.26 88.51-21.01L88.51-21.01Q89.6-20.13 89.65-21.49ZM83.76-19.64L83.76-19.64Q80.38-20.3 77.52-17.93L77.52-17.93Q75.81-16.17 75.54-14.41L75.54-14.41Q74.62-10.33 76.68-6.72L76.68-6.72Q79.15-3.47 83.76-4.26L83.76-4.26Q87.32-4.88 90.18-8.44L90.18-8.44Q90.4-8.83 90.44-9.27L90.44-9.27Q90.62-12.13 90.09-14.81L90.09-14.81Q88.15-18.63 83.76-19.64ZM95.89-21.31L95.89-21.31Q97.56-24.08 100.28-22.41L100.28-22.41Q101.95-21.18 101.51-19.78L101.51-19.78Q101.73-13.84 106-7.03L106-7.03Q106.96-5.63 107.58-6.9L107.58-6.9Q110.7-14.15 111.93-20.87L111.93-20.87Q112.02-21.31 112.41-21.75L112.41-21.75Q114.65-24.08 117.47-22.02L117.47-22.02Q118.34-20.87 116.06-19.34L116.06-19.34Q114.83-17.84 114.13-15.82L114.13-15.82 108.33-1.76Q107.09 1.32 105.51 3.52L105.51 3.52Q102.22 7.47 98.09 5.67L98.09 5.67Q96.59 5.23 95.14 2.68L95.14 2.68Q94.53 1.8 95.32 1.1L95.32 1.1Q95.54 0.88 97.16 1.67L97.16 1.67Q101.6 3.69 104.68-0.97L104.68-0.97Q105.42-2.37 104.63-3.6L104.63-3.6Q100.28-10.37 98.09-17.67L98.09-17.67Q97.73-18.54 97.16-19.42L97.16-19.42Q95.84-21.05 95.89-21.31ZM130.78-28.39L130.78-28.39Q135.75-29.53 140.19-27.82L140.19-27.82Q143.13-26.59 145.37-24.13L145.37-24.13Q145.81-23.69 146.25-23.55L146.25-23.55Q147.57-22.98 146.43-20.79L146.43-20.79Q143.53-17.97 142.38-21.84L142.38-21.84Q141.81-23.07 139.7-24.61L139.7-24.61Q136.27-26.63 132.01-26.02L132.01-26.02Q128.5-25.66 125.33-21.45L125.33-21.45Q121.6-13.49 126.17-6.94L126.17-6.94Q127.57-5.32 129.73-4.53L129.73-4.53Q134.47-3.12 137.99-5.01L137.99-5.01Q142.47-7.08 143.13-11.03L143.13-11.03 143.35-13.67Q143.61-14.37 144.1-14.19L144.1-14.19Q145.24-14.19 147.08-12.39L147.08-12.39Q148.01-11.38 147.22-9.45L147.22-9.45Q145.94-5.49 141.86-3.12L141.86-3.12Q133.11 1.19 125.11-3.47L125.11-3.47Q121.6-5.76 120.23-10.11L120.23-10.11Q118.56-15.34 121.03-21.58L121.03-21.58Q121.95-23.51 123.75-25.05L123.75-25.05Q126.91-27.6 130.78-28.39ZM167.92-21.49L167.92-21.49Q168.66-24.13 170.82-22.68L170.82-22.68Q172.31-21.75 172.09-20.13L172.09-20.13Q170.9-12.57 172.57-5.54L172.57-5.54Q173.5-4.04 171.25-2.02L171.25-2.02Q168.93-0.18 168.4-3.08L168.4-3.08Q168.4-4.31 167.17-3.38L167.17-3.38Q161.28 0.62 155.43-1.85L155.43-1.85Q151.3-3.91 150.21-7.91L150.21-7.91Q149.06-12.57 150.6-16.13L150.6-16.13Q151.92-19.82 156.09-21.88L156.09-21.88Q161.59-24.26 166.77-21.01L166.77-21.01Q167.87-20.13 167.92-21.49ZM162.03-19.64L162.03-19.64Q158.64-20.3 155.79-17.93L155.79-17.93Q154.07-16.17 153.81-14.41L153.81-14.41Q152.89-10.33 154.95-6.72L154.95-6.72Q157.41-3.47 162.03-4.26L162.03-4.26Q165.59-4.88 168.44-8.44L168.44-8.44Q168.66-8.83 168.71-9.27L168.71-9.27Q168.88-12.13 168.35-14.81L168.35-14.81Q166.42-18.63 162.03-19.64ZM179.69-28.7L179.69-28.7Q181.45-29.84 183.56-27.47L183.56-27.47Q183.96-26.63 183.82-26.1L183.82-26.1Q183.21-24.3 182.94-22.15L182.94-22.15Q182.86-21.09 183.91-21.09L183.91-21.09Q188.31-21.01 192.04-21.62L192.04-21.62Q193.36-21.67 193.49-21.45L193.49-21.45Q193.8-20.21 191.51-18.28L191.51-18.28Q190.72-17.75 189.76-17.75L189.76-17.75Q186.72-18.33 183.56-18.54L183.56-18.54Q182.55-18.5 182.5-16.92L182.5-16.92Q182.2-9.84 182.77-7.16L182.77-7.16Q182.94-5.67 184.7-5.05L184.7-5.05Q187.87-4.26 191.03-6.81L191.03-6.81Q192.7-8.48 192.96-8.57L192.96-8.57Q193.49-8.66 193.71-7.82L193.71-7.82Q193.75-4.44 190.63-2.46L190.63-2.46Q187.21-0.44 182.94-1.93L182.94-1.93Q179.08-3.74 179.25-8.13L179.25-8.13 179.6-17.05Q179.65-18.19 178.37-17.97L178.37-17.97 175.34-17.45Q173.63-17.53 173.67-18.63L173.67-18.63Q174.29-21.62 177.06-21.27L177.06-21.27 178.73-21.23Q179.78-21.18 179.78-22.28L179.78-22.28Q179.82-25.22 178.86-27.47L178.86-27.47Q178.99-28.17 179.69-28.7Z" transform="translate(-1.1512820720672607, 29.14545440673828)"></path></g> <!----> <!----> <!----> <!----> <!----> <!----> <!----></g></g> <!----></g></g></g><mask id="1c0d21d9-ee24-4b5b-bb24-6426608c225f"><g fill="white"><g><rect fill-opacity="1" stroke-width="2" x="0" y="0" width="117.5" height="117.23153977391775" class="image-rect"></rect> <svg x="0" y="0" width="117.5" height="117.23153977391775" class="image-svg-svg primary" style="overflow: visible;" filter="url(#colorsf8167446642)"><svg xmlns="http://www.w3.org/2000/svg" xmlns:xlink="http://www.w3.org/1999/xlink" version="1.1" x="0px" y="0px" viewBox="5 5.169000148773193 90.05400848388672 89.8479995727539" enable-background="new 0 0 100 100" xml:space="preserve"><g><path d="M88.118,88.087H5V5.169h83.118V88.087z M8.02,85.067h77.077V8.19H8.02V85.067z"></path></g><g><path d="M13.521,81.472c-0.834,0-1.51-0.676-1.51-1.51V13.604c0-0.834,0.676-1.51,1.51-1.51H79.79   c0.834,0,1.51,0.676,1.51,1.51s-0.676,1.51-1.51,1.51H15.032v64.848C15.032,80.796,14.355,81.472,13.521,81.472z"></path></g><g><path d="M93.544,95.017H10.634c-0.834,0-1.51-0.676-1.51-1.51c0-0.834,0.676-1.51,1.51-1.51h81.4V10.685   c0-0.834,0.676-1.51,1.51-1.51s1.51,0.676,1.51,1.51v82.821C95.054,94.34,94.378,95.017,93.544,95.017z"></path></g></svg></svg> <defs>  </defs></g></g> <g transform="translate(-37.52961730957031,40.92630195617676)"><rect fill="black" fill-opacity="1" x="-3.5" y="-3.5" width="199.55923461914062" height="42.37893295288086"></rect><rect fill="black" fill-opacity="1" x="-3.5" y="-3.5"></rect></g><g transform="translate(-37.52961730957031,40.92630195617676)" fill="black"><g data-gra="path-name" fill-rule="" class="tp-name"><g transform="scale(1)"><g><path d="M19.56-29L19.56-29Q23.38-29.4 26.02-28.7L26.02-28.7Q27.86-28.3 29.53-26.63L29.53-26.63Q32.12-23.16 31.38-18.98L31.38-18.98Q30.41-14.46 26.28-13.45L26.28-13.45 24.35-13.01Q23.29-12.79 24.17-11.38L24.17-11.38Q26.59-7.51 28.83-6.11L28.83-6.11Q31.03-5.01 33.22-4.79L33.22-4.79Q35.11-4.44 33.66-2.68L33.66-2.68Q31.2-1.27 28.26-1.41L28.26-1.41Q26.37-1.41 24.3-4.7L24.3-4.7Q22.06-8.09 20-11.47L20-11.47Q19.34-12.52 18.28-12.52L18.28-12.52Q12.7-12.61 8.75-12.13L8.75-12.13Q7.69-11.95 7.73-10.63L7.73-10.63Q7.78-8.13 8.35-5.41L8.35-5.41Q8.39-4.17 7.73-2.77L7.73-2.77Q6.94-0.97 5.49-0.92L5.49-0.92Q4.44-0.92 3.91-1.98L3.91-1.98Q3.6-3.56 4-5.49L4-5.49Q4.79-17.31 3.87-23.29L3.87-23.29Q3.56-24.43 2.02-24.13L2.02-24.13Q0.48-24.61 1.67-26.15L1.67-26.15Q3.47-28.43 7.6-28.56L7.6-28.56Q16.04-28.26 19.56-29ZM13.84-25.97L13.84-25.97Q12.22-25.84 10.55-25.53L10.55-25.53Q9.36-25.36 8.79-25.05L8.79-25.05Q8-24.43 7.91-23.77L7.91-23.77Q7.73-20.52 7.73-17.14L7.73-17.14Q7.73-16.08 9.05-15.82L9.05-15.82Q17.84-14.72 23.99-16.08L23.99-16.08Q25.53-16.26 26.59-17.67L26.59-17.67Q29.18-21.4 25.44-24.57L25.44-24.57Q21.14-26.32 13.84-25.97ZM43.73-22.19L43.73-22.19Q49.13-23.47 53.53-21.58L53.53-21.58Q56.07-20.26 58.32-16.96L58.32-16.96Q60.16-14.55 57.13-12.13L57.13-12.13Q55.33-11.29 53-11.47L53-11.47Q45.79-12.35 39.81-11.07L39.81-11.07Q38.76-10.9 38.89-9.58L38.89-9.58Q40.52-5.23 44.65-4.53L44.65-4.53Q51.55-3.03 57.04-8.75L57.04-8.75Q57.96-9.93 58.27-9.93L58.27-9.93Q58.97-9.71 59.02-8.09L59.02-8.09Q59.19-5.14 56.07-3.08L56.07-3.08Q50.41-0.44 43.55-1.63L43.55-1.63Q37-2.9 35.38-9.4L35.38-9.4Q34.54-13.49 37.05-17.58L37.05-17.58Q39.68-21.4 43.73-22.19ZM48.74-19.95L48.74-19.95Q44.96-20.43 42.1-18.28L42.1-18.28Q40.43-16.96 39.81-15.64L39.81-15.64Q39.24-14.5 40.3-14.5L40.3-14.5Q47.11-14.63 54.05-14.63L54.05-14.63Q55.2-14.63 54.89-16L54.89-16Q52.43-19.47 48.74-19.95ZM63.81-28.7L63.81-28.7Q65.35-29.71 66.93-28.21L66.93-28.21Q67.81-27.16 67.68-26.41L67.68-26.41Q66.05-17.53 66.88-8.96L66.88-8.96Q67.15-6.64 67.76-4.13L67.76-4.13Q67.59-1.36 65.52-0.83L65.52-0.83Q62.71-1.8 63.06-4.7L63.06-4.7Q63.9-19.51 62.67-26.94L62.67-26.94Q62.62-27.82 63.81-28.7ZM89.65-21.49L89.65-21.49Q90.4-24.13 92.55-22.68L92.55-22.68Q94.04-21.75 93.82-20.13L93.82-20.13Q92.64-12.57 94.31-5.54L94.31-5.54Q95.23-4.04 92.99-2.02L92.99-2.02Q90.66-0.18 90.13-3.08L90.13-3.08Q90.13-4.31 88.9-3.38L88.9-3.38Q83.01 0.62 77.17-1.85L77.17-1.85Q73.04-3.91 71.94-7.91L71.94-7.91Q70.8-12.57 72.33-16.13L72.33-16.13Q73.65-19.82 77.83-21.88L77.83-21.88Q83.32-24.26 88.51-21.01L88.51-21.01Q89.6-20.13 89.65-21.49ZM83.76-19.64L83.76-19.64Q80.38-20.3 77.52-17.93L77.52-17.93Q75.81-16.17 75.54-14.41L75.54-14.41Q74.62-10.33 76.68-6.72L76.68-6.72Q79.15-3.47 83.76-4.26L83.76-4.26Q87.32-4.88 90.18-8.44L90.18-8.44Q90.4-8.83 90.44-9.27L90.44-9.27Q90.62-12.13 90.09-14.81L90.09-14.81Q88.15-18.63 83.76-19.64ZM95.89-21.31L95.89-21.31Q97.56-24.08 100.28-22.41L100.28-22.41Q101.95-21.18 101.51-19.78L101.51-19.78Q101.73-13.84 106-7.03L106-7.03Q106.96-5.63 107.58-6.9L107.58-6.9Q110.7-14.15 111.93-20.87L111.93-20.87Q112.02-21.31 112.41-21.75L112.41-21.75Q114.65-24.08 117.47-22.02L117.47-22.02Q118.34-20.87 116.06-19.34L116.06-19.34Q114.83-17.84 114.13-15.82L114.13-15.82 108.33-1.76Q107.09 1.32 105.51 3.52L105.51 3.52Q102.22 7.47 98.09 5.67L98.09 5.67Q96.59 5.23 95.14 2.68L95.14 2.68Q94.53 1.8 95.32 1.1L95.32 1.1Q95.54 0.88 97.16 1.67L97.16 1.67Q101.6 3.69 104.68-0.97L104.68-0.97Q105.42-2.37 104.63-3.6L104.63-3.6Q100.28-10.37 98.09-17.67L98.09-17.67Q97.73-18.54 97.16-19.42L97.16-19.42Q95.84-21.05 95.89-21.31ZM130.78-28.39L130.78-28.39Q135.75-29.53 140.19-27.82L140.19-27.82Q143.13-26.59 145.37-24.13L145.37-24.13Q145.81-23.69 146.25-23.55L146.25-23.55Q147.57-22.98 146.43-20.79L146.43-20.79Q143.53-17.97 142.38-21.84L142.38-21.84Q141.81-23.07 139.7-24.61L139.7-24.61Q136.27-26.63 132.01-26.02L132.01-26.02Q128.5-25.66 125.33-21.45L125.33-21.45Q121.6-13.49 126.17-6.94L126.17-6.94Q127.57-5.32 129.73-4.53L129.73-4.53Q134.47-3.12 137.99-5.01L137.99-5.01Q142.47-7.08 143.13-11.03L143.13-11.03 143.35-13.67Q143.61-14.37 144.1-14.19L144.1-14.19Q145.24-14.19 147.08-12.39L147.08-12.39Q148.01-11.38 147.22-9.45L147.22-9.45Q145.94-5.49 141.86-3.12L141.86-3.12Q133.11 1.19 125.11-3.47L125.11-3.47Q121.6-5.76 120.23-10.11L120.23-10.11Q118.56-15.34 121.03-21.58L121.03-21.58Q121.95-23.51 123.75-25.05L123.75-25.05Q126.91-27.6 130.78-28.39ZM167.92-21.49L167.92-21.49Q168.66-24.13 170.82-22.68L170.82-22.68Q172.31-21.75 172.09-20.13L172.09-20.13Q170.9-12.57 172.57-5.54L172.57-5.54Q173.5-4.04 171.25-2.02L171.25-2.02Q168.93-0.18 168.4-3.08L168.4-3.08Q168.4-4.31 167.17-3.38L167.17-3.38Q161.28 0.62 155.43-1.85L155.43-1.85Q151.3-3.91 150.21-7.91L150.21-7.91Q149.06-12.57 150.6-16.13L150.6-16.13Q151.92-19.82 156.09-21.88L156.09-21.88Q161.59-24.26 166.77-21.01L166.77-21.01Q167.87-20.13 167.92-21.49ZM162.03-19.64L162.03-19.64Q158.64-20.3 155.79-17.93L155.79-17.93Q154.07-16.17 153.81-14.41L153.81-14.41Q152.89-10.33 154.95-6.72L154.95-6.72Q157.41-3.47 162.03-4.26L162.03-4.26Q165.59-4.88 168.44-8.44L168.44-8.44Q168.66-8.83 168.71-9.27L168.71-9.27Q168.88-12.13 168.35-14.81L168.35-14.81Q166.42-18.63 162.03-19.64ZM179.69-28.7L179.69-28.7Q181.45-29.84 183.56-27.47L183.56-27.47Q183.96-26.63 183.82-26.1L183.82-26.1Q183.21-24.3 182.94-22.15L182.94-22.15Q182.86-21.09 183.91-21.09L183.91-21.09Q188.31-21.01 192.04-21.62L192.04-21.62Q193.36-21.67 193.49-21.45L193.49-21.45Q193.8-20.21 191.51-18.28L191.51-18.28Q190.72-17.75 189.76-17.75L189.76-17.75Q186.72-18.33 183.56-18.54L183.56-18.54Q182.55-18.5 182.5-16.92L182.5-16.92Q182.2-9.84 182.77-7.16L182.77-7.16Q182.94-5.67 184.7-5.05L184.7-5.05Q187.87-4.26 191.03-6.81L191.03-6.81Q192.7-8.48 192.96-8.57L192.96-8.57Q193.49-8.66 193.71-7.82L193.71-7.82Q193.75-4.44 190.63-2.46L190.63-2.46Q187.21-0.44 182.94-1.93L182.94-1.93Q179.08-3.74 179.25-8.13L179.25-8.13 179.6-17.05Q179.65-18.19 178.37-17.97L178.37-17.97 175.34-17.45Q173.63-17.53 173.67-18.63L173.67-18.63Q174.29-21.62 177.06-21.27L177.06-21.27 178.73-21.23Q179.78-21.18 179.78-22.28L179.78-22.28Q179.82-25.22 178.86-27.47L178.86-27.47Q178.99-28.17 179.69-28.7Z" transform="translate(-1.1512820720672607, 29.14545440673828)"></path></g>       </g></g> </g></mask><defs v-gra="od"></defs></svg>